<?xml version="1.0" encoding="UTF-8" standalone="no"?>
<svg width="98px" height="68px" viewBox="0 0 98 68" version="1.1" xmlns="http://www.w3.org/2000/svg" xmlns:xlink="http://www.w3.org/1999/xlink" xmlns:sketch="http://www.bohemiancoding.com/sketch/ns">
    <!-- Generator: Sketch 3.3.3 (12081) - http://www.bohemiancoding.com/sketch -->
    <title>XMLID_254_ Copy 2 + XMLID_254_ Copy 3 + Shape Copy 3</title>
    <desc>Created with Sketch.</desc>
    <defs></defs>
    <g id="Welcome" stroke="none" stroke-width="1" fill="none" fill-rule="evenodd" sketch:type="MSPage">
        <g id="Desktop" sketch:type="MSArtboardGroup" transform="translate(-336.000000, -131.000000)" fill="#FFFFFF">
            <g id="Mezzo-+-XMLID_254_-Copy-2-+-XMLID_254_-Copy-3-+-Shape-Copy-3" sketch:type="MSLayerGroup" transform="translate(335.000000, 116.000000)">
                <g id="XMLID_254_-Copy-2-+-XMLID_254_-Copy-3-+-Shape-Copy-3" transform="translate(0.236842, 15.236364)" sketch:type="MSShapeGroup">
                    <path d="M2.71402351,12.2491573 C2.3867707,12.4779192 2.24073625,12.8428405 2.32392359,13.1956183 C3.63454697,18.7238055 6.34696492,22.607982 9.41985442,25.3896712 C8.72942387,25.1832935 8.05470002,24.9831315 7.5069831,24.8263716 C7.08629655,24.7051771 6.61811678,24.8080362 6.31004189,25.0853312 C6.00851968,25.3669292 5.919656,25.773874 6.09017452,26.1252705 C10.6780481,35.6150886 10.7125757,37.0041066 17.7107718,37.8040351 C17.7606513,37.8525387 19.2897903,31.6828234 21.0017384,28.8480811 C23.9088553,24.0343097 27.7913536,22.2890273 30.2461757,20.7819809 C30.5091201,20.1051747 29.5687613,18.3843117 29.1061762,17.5752974 C25.8444293,11.8592736 8.54852075,2.97593858 2.4327189,0.18422989 C2.04821683,0.00792117567 1.56945944,0.0386835406 1.21625353,0.264050991 C0.863183123,0.490516026 0.696816448,0.871641788 0.78323077,1.24129742 C2.02168273,6.47074506 4.40060308,10.3620816 7.18180193,13.3327517 C5.90149452,12.8380298 4.73722829,12.4016089 3.87142442,12.0965387 C3.48548533,11.9616861 3.03946291,12.0199067 2.71402351,12.2491573 L2.71402351,12.2491573 Z" id="XMLID_254_-Copy-2"></path>
                    <path d="M96.091292,13.3619922 C96.4185448,13.5907541 96.5645792,13.9556755 96.4813919,14.3084532 C95.1707685,19.8366404 92.4583506,23.7208169 89.3854611,26.5025062 C90.0758916,26.2961284 90.7506155,26.0959665 91.2983324,25.9392065 C91.7190189,25.818012 92.1871987,25.9208711 92.4952736,26.1981661 C92.7967958,26.4797641 92.8856595,26.8867089 92.715141,27.2381054 C88.1272674,36.7279235 88.0927398,38.1169415 81.0945437,38.91687 C81.0446641,38.9653736 79.5155252,32.7956583 77.8035771,29.9609161 C74.8964602,25.1471446 71.0139619,23.4018623 68.5591398,21.8948158 C68.2961954,21.2180096 69.2365542,19.4971466 69.6991393,18.6881323 C72.9608862,12.9721085 90.2567947,4.0887735 96.3725966,1.29706481 C96.7570987,1.12075609 97.235856,1.15151846 97.589062,1.37688591 C97.9421324,1.60335094 98.108499,1.98447671 98.0220847,2.35413233 C96.7836328,7.58357998 94.4047124,11.4749165 91.6235136,14.4455867 C92.903821,13.9508648 94.0680872,13.5144439 94.9338911,13.2093736 C95.3198302,13.074521 95.7658526,13.1327416 96.091292,13.3619922 L96.091292,13.3619922 Z" id="XMLID_254_-Copy-3"></path>
                    <path d="M48.8611209,66.5638977 C50.682668,66.5638977 53.2964727,67.8489857 54.7415979,67.4401564 C63.9431375,64.8368733 70.2123411,52.9061241 71.8948942,44.6968177 C72.0216531,44.0783515 72.1963671,28.3376531 63.328201,26.6783559 C57.7792912,24.5289925 50.0319022,29.1609862 50.7324269,28.9222985 C50.5684047,28.4906956 50.5444779,25.8860147 50.5444779,25.6128904 C51.3473206,24.1005146 54.2948247,23.6649536 57.6051535,22.0946846 C64.1756041,18.9779624 64.1756041,13.8371321 64.1756041,13.8371321 C64.1756041,13.8371321 59.9682114,12.8000844 54.5295391,15.7370217 C51.5530439,17.3443589 50.3490032,18.42674 49.5564709,21.3321175 C49.3767792,20.2730655 49.3805036,19.8625467 49.0960127,18.4152315 C48.8193339,17.0076592 48.4648805,15.8286279 48.3960706,15.2615223 C48.2838032,14.6866362 48.1539576,14.1938865 48.003581,13.825748 C46.9345345,11.2078822 43.8671969,12.4808933 43.8671969,13.825748 C43.8671969,14.7187497 44.3658427,15.1691617 44.9188025,15.6501777 C45.6138991,17.7870962 45.2845908,16.6838689 45.4718549,17.4181042 C45.5070775,17.5562069 45.8401369,18.8060727 46.0859616,19.8761769 C46.3585177,21.0626461 46.5455309,22.0800173 46.5692867,22.2372835 C46.5886502,22.3654629 46.7888776,24.0105237 46.841887,24.6131317 C46.9043722,25.3234022 46.9479746,28.2618695 46.9755779,28.9744044 C42.7583063,28.3537497 39.9019765,23.7644577 34.4277907,25.9829636 C28.1780329,28.515811 25.3741633,35.6658626 25.3741633,40.7458987 C25.3741633,47.9480317 32.6780673,63.5009721 42.6204269,67.4401564 C44.6075941,68.2274855 47.0395738,66.5638977 48.8611209,66.5638977 Z" id="Shape-Copy-3"></path>
                </g>
            </g>
        </g>
    </g>
</svg>